<svg width="70px" height="48px" version="1.1" xmlns="http://www.w3.org/2000/svg" xmlns:xlink="http://www.w3.org/1999/xlink" xml:space="preserve" style="fill-rule:evenodd;clip-rule:evenodd;stroke-linejoin:round;stroke-miterlimit:1.41421;">
    <g id="Layer_1">
        <g>
            <path d="M64.1309,0.060402L5.57758,0.060402C2.55387,0.060402 0.0946132,2.5204 0.0946132,5.54336L0.0946132,42.4878C0.0946132,45.5115 2.55387,47.9708 5.57758,47.9708L64.1309,47.9708C67.1546,47.9708 69.6139,45.5115 69.6139,42.4878L69.6139,5.54336C69.6139,2.5204 67.1546,0.060402 64.1309,0.060402ZM67.0124,5.54336L67.0124,16.9004C60.9561,16.9004 35.7368,16.9019 35.4931,16.9063C35.3117,16.9093 35.2117,16.8508 35.1272,16.6893C34.5583,15.5937 34.1472,14.4426 33.8939,13.236C33.8087,12.8286 33.645,12.6034 33.2346,12.6093C32.6442,12.6174 32.0361,12.6545 31.4657,12.7989C29.7517,13.2308 28.2576,14.1263 26.8502,15.1656C26.1768,15.6634 25.5479,16.2219 24.8939,16.7463C24.7968,16.8234 24.6783,16.873 24.5198,16.9648L24.5198,2.66114L64.1309,2.66114C65.7198,2.66188 67.0124,3.95448 67.0124,5.54336ZM5.57758,2.66188L19.6102,2.66188L19.6102,16.5256C19.3879,16.4493 19.1842,16.4145 19.0183,16.3167C18.6842,16.1182 18.3694,15.8893 18.0531,15.6648C16.2042,14.3523 14.0065,13.8123 11.8376,13.2886C11.6746,13.25 11.505,13.233 11.3383,13.2248C10.4265,13.1752 10.1287,13.3374 9.81758,14.1878C9.5598,14.8952 9.46424,15.9478 9.23758,16.6663C9.20795,16.7589 9.09609,16.8923 9.02054,16.8923C8.57239,16.8982 4.70498,16.9004 2.69535,16.9019L2.69535,5.54336C2.69609,3.95448 3.98869,2.66188 5.57758,2.66188ZM2.69609,42.4878L2.69609,21.7856C5.61758,21.7856 11.1102,21.7856 12.7057,21.7856C12.4894,22.0182 12.3205,22.2123 12.1383,22.393C11.4768,23.0515 11.1531,23.3663 10.4828,24.0152C10.2502,24.2411 10.2361,24.5011 10.2776,24.796C10.5761,26.8523 10.4776,29.256 10.4576,31.3397C10.4531,31.7152 10.4257,32.0908 10.4057,32.5352C10.5124,32.4745 10.5961,32.4523 10.642,32.396C11.0331,31.9211 11.3768,31.4004 11.8109,30.9693C13.2961,29.4893 14.8317,28.056 16.3124,26.5715C17.3783,25.5026 18.3894,24.3782 19.4242,23.2782C19.4731,23.2263 19.5228,23.1737 19.6109,23.0797C19.6109,26.4234 19.6109,40.9263 19.6109,45.3686L5.57758,45.3686C3.98869,45.37 2.69609,44.0767 2.69609,42.4878ZM64.1309,45.37L24.5213,45.37C24.5213,39.8293 24.5213,26.2389 24.5213,22.2863C25.5487,23.4826 26.5191,24.6686 27.5509,25.7989C28.5191,26.8597 29.5791,27.8374 30.5539,28.893C31.5413,29.9641 33.0694,31.7397 34.0265,32.8389C34.0805,32.9011 34.1339,32.9619 34.2287,33.0708C34.2531,32.9345 34.2768,32.8515 34.2828,32.7663C34.4709,30.3293 34.6539,27.8923 34.8502,25.4567C34.8702,25.2041 34.8228,24.9967 34.6479,24.8271C33.9109,24.1123 32.5768,22.7463 31.8361,22.0345C31.7613,21.9634 31.6805,21.8989 31.5561,21.7923C33.3287,21.7923 60.5139,21.7923 67.0131,21.7923L67.0131,42.4871C67.0124,44.0767 65.7198,45.37 64.1309,45.37Z" style="fill:rgb(206,42,30);fill-rule:nonzero;"/>
        </g>
    </g>
</svg>
